<svg  viewBox="0 0 19 22" xmlns="http://www.w3.org/2000/svg">
<g id="icon_&#231;&#130;&#185;&#229;&#135;&#187;">
<path fill-rule="evenodd" clip-rule="evenodd" d="M7.5 3C7.36739 3 7.24021 3.05268 7.14645 3.14645C7.05268 3.24021 7 3.36739 7 3.5V12C7 12.5523 6.55228 13 6 13C5.44772 13 5 12.5523 5 12V3.5C5 2.83696 5.26339 2.20107 5.73223 1.73223C6.20107 1.26339 6.83696 1 7.5 1C8.16304 1 8.79893 1.26339 9.26777 1.73223C9.73661 2.20107 10 2.83696 10 3.5V6.0505C10.1633 6.01715 10.3308 6 10.5 6C11.163 6 11.7989 6.26339 12.2678 6.73223C12.3992 6.86368 12.5145 7.00826 12.6124 7.16288C12.8933 7.0562 13.1937 7 13.5 7C14.163 7 14.7989 7.26339 15.2678 7.73223C15.7366 8.20107 16 8.83696 16 9.5V11C16 11.5523 15.5523 12 15 12C14.4477 12 14 11.5523 14 11V9.5C14 9.36739 13.9473 9.24022 13.8536 9.14645C13.7598 9.05268 13.6326 9 13.5 9C13.3674 9 13.2402 9.05268 13.1464 9.14645C13.0527 9.24021 13 9.36739 13 9.5V11C13 11.5523 12.5523 12 12 12C11.4477 12 11 11.5523 11 11V8.5C11 8.36739 10.9473 8.24021 10.8536 8.14645C10.7598 8.05268 10.6326 8 10.5 8C10.3674 8 10.2402 8.05268 10.1464 8.14645C10.0527 8.24021 10 8.36739 10 8.5V11C10 11.5523 9.55228 12 9 12C8.44772 12 8 11.5523 8 11V3.5C8 3.36739 7.94732 3.24021 7.85355 3.14645C7.75979 3.05268 7.63261 3 7.5 3Z" />
<path fill-rule="evenodd" clip-rule="evenodd" d="M1.29289 0.292893C1.68342 -0.0976311 2.31658 -0.0976311 2.70711 0.292893L3.70711 1.29289C4.09763 1.68342 4.09763 2.31658 3.70711 2.70711C3.31658 3.09763 2.68342 3.09763 2.29289 2.70711L1.29289 1.70711C0.902369 1.31658 0.902369 0.683417 1.29289 0.292893ZM13.7071 0.292893C14.0976 0.683417 14.0976 1.31658 13.7071 1.70711L12.7071 2.70711C12.3166 3.09763 11.6834 3.09763 11.2929 2.70711C10.9024 2.31658 10.9024 1.68342 11.2929 1.29289L12.2929 0.292893C12.6834 -0.0976311 13.3166 -0.0976311 13.7071 0.292893ZM12 5C12 4.44772 12.4477 4 13 4H14C14.5523 4 15 4.44772 15 5C15 5.55228 14.5523 6 14 6H13C12.4477 6 12 5.55228 12 5ZM0 6C0 5.44772 0.447715 5 1 5H2C2.55228 5 3 5.44772 3 6C3 6.55228 2.55228 7 2 7H1C0.447715 7 0 6.55228 0 6ZM16.5 10C16.3674 10 16.2402 10.0527 16.1464 10.1464C16.0527 10.2402 16 10.3674 16 10.5C16 11.0523 15.5523 11.5 15 11.5C14.4477 11.5 14 11.0523 14 10.5C14 9.83696 14.2634 9.20107 14.7322 8.73223C15.2011 8.26339 15.837 8 16.5 8C17.163 8 17.7989 8.26339 18.2678 8.73223C18.7366 9.20107 19 9.83696 19 10.5V15C19 16.8565 18.2625 18.637 16.9497 19.9497C15.637 21.2625 13.8565 22 12 22H10.2082H10C9.95705 22 9.91474 21.9973 9.87322 21.992C8.82981 21.9422 7.80925 21.6594 6.88712 21.1627C5.86651 20.6129 4.99844 19.8182 4.36084 18.85L4.35883 18.8469L4.16208 18.5458C3.82725 18.0317 2.71048 16.0828 0.842464 12.7623C0.523214 12.1949 0.437936 11.5253 0.604767 10.8959C0.771599 10.2666 1.17738 9.72712 1.7358 9.39233C2.28376 9.06364 2.92582 8.92741 3.56005 9.0053C4.1944 9.0832 4.78452 9.37083 5.2367 9.82249L6.70711 11.2929C7.09763 11.6834 7.09763 12.3166 6.70711 12.7071C6.31658 13.0976 5.68342 13.0976 5.29289 12.7071L3.8233 11.2375C3.68656 11.1009 3.5081 11.0139 3.31627 10.9904C3.12444 10.9668 2.93024 11.008 2.76451 11.1075C2.65283 11.1744 2.57136 11.2825 2.538 11.4084C2.50463 11.5343 2.52169 11.6682 2.58554 11.7817C4.47501 15.1403 5.54819 17.0093 5.83769 17.4539L6.03116 17.75L6.03216 17.7515C6.48749 18.4424 7.10718 19.0095 7.83565 19.4019C8.56416 19.7944 9.37867 19.9999 10.2061 20H12C13.3261 20 14.5979 19.4732 15.5355 18.5355C16.4732 17.5979 17 16.3261 17 15V10.5C17 10.3674 16.9473 10.2402 16.8536 10.1464C16.7598 10.0527 16.6326 10 16.5 10Z" />
</g>
</svg>
