<svg viewBox="0 0 14 14" xmlns="http://www.w3.org/2000/svg">
<path id="icon_&#228;&#184;&#139;&#232;&#189;&#189;" fill-rule="evenodd" clip-rule="evenodd" d="M7.1 0.400391C7.43137 0.400391 7.7 0.66902 7.7 1.00039V8.2249L9.0527 6.71189C9.27356 6.46485 9.65287 6.44363 9.89991 6.66449C10.1469 6.88535 10.1682 7.26466 9.9473 7.51169L7.5473 10.1961C7.43347 10.3234 7.27078 10.3962 7.1 10.3962C6.92922 10.3962 6.76653 10.3234 6.6527 10.1961L4.2527 7.51169C4.03184 7.26466 4.05306 6.88535 4.3001 6.66449C4.54713 6.44363 4.92644 6.46485 5.1473 6.71189L6.5 8.2249V1.00039C6.5 0.66902 6.76863 0.400391 7.1 0.400391ZM1.1 8.61035C1.43137 8.61035 1.7 8.87898 1.7 9.21035V11.5653C1.7 12.1315 2.06469 12.4004 2.3 12.4004H11.9C12.1353 12.4004 12.5 12.1315 12.5 11.5653V9.21035C12.5 8.87898 12.7686 8.61035 13.1 8.61035C13.4314 8.61035 13.7 8.87898 13.7 9.21035V11.5653C13.7 12.5842 12.9902 13.6004 11.9 13.6004H2.3C1.20983 13.6004 0.5 12.5842 0.5 11.5653V9.21035C0.5 8.87898 0.768629 8.61035 1.1 8.61035Z" />
</svg>
